<svg width="155" height="51" viewBox="0 0 155 51" fill="none" xmlns="http://www.w3.org/2000/svg">
<rect width="10" height="9.95084" rx="2" fill="#354C37"/>
<rect y="11.9409" width="10" height="35.823" rx="2" fill="#354C37"/>
<path d="M21 2.00293C21 0.89836 21.8954 0.00292969 23 0.00292969H31V45.767C31 46.8715 30.1046 47.767 29 47.767H23C21.8954 47.767 21 46.8715 21 45.767V2.00293Z" fill="#354C37"/>
<path d="M53.6699 0.00292969H61.6699C62.7745 0.00292969 63.6699 0.89836 63.6699 2.00293V45.767C63.6699 46.8715 62.7745 47.767 61.6699 47.767H55.6699C54.5654 47.767 53.6699 46.8715 53.6699 45.767V0.00292969Z" fill="#354C37"/>
<path d="M23.9302 7.03906L31.0012 0.00275618L49.386 18.2972L43.7326 23.9227C42.9497 24.7019 41.6802 24.7019 40.8973 23.9227L23.9302 7.03906Z" fill="#354C37"/>
<path d="M53.6611 0L60.7322 7.03631L43.7564 23.9287C42.9734 24.7078 41.704 24.7078 40.921 23.9286L35.2676 18.3031L53.6611 0Z" fill="#354C37"/>
<path d="M89.4082 0.00292969L96.9092 2.71963C97.9537 3.09796 98.4871 4.25416 98.0969 5.2944L82.7325 46.2544C82.4424 47.0278 81.7062 47.5448 80.8794 47.5557L75.0855 47.6321C73.6894 47.6505 72.707 46.2732 73.1805 44.9613L89.4082 0.00292969Z" fill="#354C37"/>
<path d="M90.962 5.29241C90.5825 4.25504 91.1169 3.10912 92.1554 2.73296L99.6718 0.0106747L115.084 45.0886C115.531 46.3952 114.549 47.7467 113.167 47.7275L107.834 47.6534C107.002 47.6418 106.262 47.1176 105.977 46.3368L90.962 5.29241Z" fill="#354C37"/>
<rect x="89.4199" y="0.00292969" width="10.25" height="6.96559" fill="#354C37"/>
<rect x="83" y="26.8701" width="24" height="7.96067" fill="#354C37"/>
<rect x="130" y="1.99316" width="10" height="45.7739" rx="2" fill="#354C37"/>
<rect x="115" y="0.00292969" width="40" height="9.95084" rx="2" fill="#354C37"/>
</svg>
